<mxfile host="app.diagrams.net" modified="2024-11-16T19:22:18.073Z" agent="Mozilla/5.0 (Windows NT 10.0; Win64; x64) AppleWebKit/537.36 (KHTML, like Gecko) Chrome/131.0.0.0 Safari/537.36" etag="oBUbvt_6LdVBWpfSjt26" version="24.5.5" type="google" pages="2">
  <diagram name="Trang-1" id="Eerdtosbzp2WnLIk4-4X">
    <mxGraphModel grid="0" page="1" gridSize="10" guides="1" tooltips="1" connect="1" arrows="1" fold="1" pageScale="1" pageWidth="827" pageHeight="1169" background="#FFF2CC" math="0" shadow="0">
      <root>
        <mxCell id="0" />
        <mxCell id="1" parent="0" />
        <mxCell id="XPY9D40w8w2zad9MLFeZ-1" value="&lt;font style=&quot;font-size: 18px;&quot;&gt;Course&lt;/font&gt;" style="swimlane;whiteSpace=wrap;html=1;swimlaneFillColor=#D4E1F5;fillColor=#7EA6E0;" vertex="1" parent="1">
          <mxGeometry x="112" y="46" width="335" height="385" as="geometry" />
        </mxCell>
        <mxCell id="XPY9D40w8w2zad9MLFeZ-10" value="&lt;font style=&quot;font-size: 15px;&quot;&gt;+ &lt;font color=&quot;#ff0000&quot;&gt;&lt;b&gt;_id&lt;/b&gt;&lt;/font&gt;: String (required)&lt;/font&gt;&lt;div style=&quot;font-size: 15px;&quot;&gt;&lt;font style=&quot;font-size: 15px;&quot;&gt;&lt;br&gt;&lt;/font&gt;&lt;div style=&quot;&quot;&gt;&lt;font style=&quot;font-size: 15px;&quot;&gt;+ &lt;font color=&quot;#ff0000&quot;&gt;&lt;b&gt;description&lt;/b&gt;&lt;/font&gt;: String (required)&lt;/font&gt;&lt;/div&gt;&lt;div style=&quot;&quot;&gt;&lt;font style=&quot;font-size: 15px;&quot;&gt;&lt;br&gt;&lt;/font&gt;&lt;/div&gt;&lt;div style=&quot;&quot;&gt;&lt;font style=&quot;font-size: 15px;&quot;&gt;+ &lt;font style=&quot;&quot; color=&quot;#ff0000&quot;&gt;&lt;b&gt;title&lt;/b&gt;&lt;/font&gt;: String (required, min, max)&lt;/font&gt;&lt;/div&gt;&lt;div style=&quot;&quot;&gt;&lt;font style=&quot;font-size: 15px;&quot;&gt;&lt;br&gt;&lt;/font&gt;&lt;/div&gt;&lt;div style=&quot;&quot;&gt;&lt;font style=&quot;font-size: 15px;&quot;&gt;+ &lt;font style=&quot;&quot; color=&quot;#ff0000&quot;&gt;&lt;b&gt;type&lt;/b&gt;&lt;/font&gt;: String (required)&lt;/font&gt;&lt;/div&gt;&lt;div style=&quot;&quot;&gt;&lt;font style=&quot;font-size: 15px;&quot;&gt;&lt;br&gt;&lt;/font&gt;&lt;/div&gt;&lt;div style=&quot;&quot;&gt;&lt;font style=&quot;font-size: 15px;&quot;&gt;+ &lt;font color=&quot;#ff0000&quot;&gt;&lt;b&gt;ownerIds&lt;/b&gt;&lt;/font&gt;: Array of Ids &amp;lt;Default: []&amp;gt;&lt;/font&gt;&lt;/div&gt;&lt;div style=&quot;&quot;&gt;&lt;font style=&quot;font-size: 15px;&quot;&gt;&lt;br&gt;&lt;/font&gt;&lt;/div&gt;&lt;div style=&quot;&quot;&gt;&lt;font style=&quot;font-size: 15px;&quot;&gt;+ &lt;font color=&quot;#ff0000&quot;&gt;&lt;b&gt;memberIds&lt;/b&gt;&lt;/font&gt;:&amp;nbsp;&lt;span style=&quot;background-color: initial;&quot;&gt;Array of Ids &amp;lt;Default: []&amp;gt;&lt;/span&gt;&lt;/font&gt;&lt;/div&gt;&lt;div style=&quot;&quot;&gt;&lt;span style=&quot;background-color: initial;&quot;&gt;&lt;font style=&quot;font-size: 15px;&quot;&gt;&lt;br&gt;&lt;/font&gt;&lt;/span&gt;&lt;/div&gt;&lt;div style=&quot;&quot;&gt;&lt;span style=&quot;background-color: initial;&quot;&gt;&lt;font style=&quot;font-size: 15px;&quot;&gt;+ &lt;font color=&quot;#ff0000&quot;&gt;&lt;b&gt;createdAt&lt;/b&gt;&lt;/font&gt;: Timestamp &amp;lt;Default: null&amp;gt;&lt;/font&gt;&lt;/span&gt;&lt;/div&gt;&lt;div style=&quot;&quot;&gt;&lt;span style=&quot;background-color: initial;&quot;&gt;&lt;font style=&quot;font-size: 15px;&quot;&gt;&lt;b&gt;&lt;br&gt;&lt;/b&gt;&lt;/font&gt;&lt;/span&gt;&lt;/div&gt;&lt;div style=&quot;&quot;&gt;&lt;font style=&quot;font-size: 15px;&quot;&gt;&lt;span style=&quot;background-color: initial;&quot;&gt;+ &lt;font color=&quot;#ff0000&quot;&gt;&lt;b&gt;updateAt&lt;/b&gt;&lt;/font&gt;:&amp;nbsp;&lt;/span&gt;&lt;span style=&quot;background-color: initial;&quot;&gt;Timestamp &amp;lt;Default: null&amp;gt;&lt;/span&gt;&lt;/font&gt;&lt;/div&gt;&lt;div style=&quot;&quot;&gt;&lt;span style=&quot;background-color: initial;&quot;&gt;&lt;font style=&quot;font-size: 15px;&quot;&gt;&lt;br&gt;&lt;/font&gt;&lt;/span&gt;&lt;/div&gt;&lt;div style=&quot;&quot;&gt;&lt;span style=&quot;background-color: initial;&quot;&gt;&lt;font style=&quot;font-size: 15px;&quot;&gt;+ &lt;font color=&quot;#ff0000&quot;&gt;&lt;b&gt;_destroy&lt;/b&gt;&lt;/font&gt;: Boolean &amp;lt;Default: false&amp;gt;&lt;/font&gt;&lt;/span&gt;&lt;/div&gt;&lt;/div&gt;" style="text;html=1;align=left;verticalAlign=middle;whiteSpace=wrap;rounded=0;" vertex="1" parent="XPY9D40w8w2zad9MLFeZ-1">
          <mxGeometry x="14" y="36" width="299" height="325" as="geometry" />
        </mxCell>
        <mxCell id="XPY9D40w8w2zad9MLFeZ-11" value="&lt;font style=&quot;font-size: 18px;&quot;&gt;Quiz&lt;/font&gt;" style="swimlane;whiteSpace=wrap;html=1;swimlaneFillColor=#D4E1F5;fillColor=#7EA6E0;" vertex="1" parent="1">
          <mxGeometry x="627" y="46" width="315" height="369" as="geometry" />
        </mxCell>
        <mxCell id="XPY9D40w8w2zad9MLFeZ-12" value="&lt;font style=&quot;font-size: 16px;&quot;&gt;+ &lt;font color=&quot;#ff0000&quot;&gt;&lt;b&gt;_id&lt;/b&gt;&lt;/font&gt;: String (required)&lt;/font&gt;&lt;div style=&quot;font-size: 16px;&quot;&gt;&lt;font style=&quot;font-size: 16px;&quot;&gt;&lt;br&gt;&lt;/font&gt;&lt;div style=&quot;&quot;&gt;&lt;font style=&quot;font-size: 16px;&quot;&gt;+ &lt;font color=&quot;#ff0000&quot;&gt;&lt;b&gt;courseId&lt;/b&gt;&lt;/font&gt;: String (required)&lt;/font&gt;&lt;/div&gt;&lt;div style=&quot;&quot;&gt;&lt;font style=&quot;font-size: 16px;&quot;&gt;&lt;br&gt;&lt;/font&gt;&lt;/div&gt;&lt;div style=&quot;&quot;&gt;&lt;font style=&quot;font-size: 16px;&quot;&gt;+ &lt;font color=&quot;#ff0000&quot;&gt;&lt;b&gt;lessonId&lt;/b&gt;&lt;/font&gt;:&amp;nbsp;&lt;span style=&quot;background-color: initial;&quot;&gt;String (required)&lt;/span&gt;&lt;/font&gt;&lt;/div&gt;&lt;div style=&quot;&quot;&gt;&lt;font style=&quot;font-size: 16px;&quot;&gt;&lt;br&gt;&lt;/font&gt;&lt;/div&gt;&lt;div style=&quot;&quot;&gt;&lt;font style=&quot;font-size: 16px;&quot;&gt;+ &lt;font color=&quot;#ff0000&quot;&gt;&lt;b&gt;title&lt;/b&gt;&lt;/font&gt;: String (required, min, max)&lt;/font&gt;&lt;/div&gt;&lt;div style=&quot;&quot;&gt;&lt;span style=&quot;background-color: initial;&quot;&gt;&lt;font style=&quot;font-size: 16px;&quot;&gt;&lt;br&gt;&lt;/font&gt;&lt;/span&gt;&lt;/div&gt;&lt;div style=&quot;&quot;&gt;&lt;span style=&quot;background-color: initial;&quot;&gt;&lt;font style=&quot;font-size: 16px;&quot;&gt;+ &lt;font color=&quot;#ff0000&quot;&gt;&lt;b&gt;createdAt&lt;/b&gt;&lt;/font&gt;: Timestamp &amp;lt;Default: null&amp;gt;&lt;/font&gt;&lt;/span&gt;&lt;/div&gt;&lt;div style=&quot;&quot;&gt;&lt;span style=&quot;background-color: initial;&quot;&gt;&lt;font style=&quot;font-size: 16px;&quot;&gt;&lt;br&gt;&lt;/font&gt;&lt;/span&gt;&lt;/div&gt;&lt;div style=&quot;&quot;&gt;&lt;font style=&quot;font-size: 16px;&quot;&gt;&lt;span style=&quot;background-color: initial;&quot;&gt;+ &lt;font color=&quot;#ff0000&quot;&gt;&lt;b&gt;updateAt&lt;/b&gt;&lt;/font&gt;:&amp;nbsp;&lt;/span&gt;&lt;span style=&quot;background-color: initial;&quot;&gt;Timestamp &amp;lt;Default: null&amp;gt;&lt;/span&gt;&lt;/font&gt;&lt;/div&gt;&lt;div style=&quot;&quot;&gt;&lt;span style=&quot;background-color: initial;&quot;&gt;&lt;font style=&quot;font-size: 16px;&quot;&gt;&lt;br&gt;&lt;/font&gt;&lt;/span&gt;&lt;/div&gt;&lt;div style=&quot;&quot;&gt;&lt;span style=&quot;background-color: initial;&quot;&gt;&lt;font style=&quot;font-size: 16px;&quot;&gt;+ &lt;font color=&quot;#ff0000&quot;&gt;&lt;b&gt;_destroy&lt;/b&gt;&lt;/font&gt;: Boolean &amp;lt;Default: false&amp;gt;&lt;/font&gt;&lt;/span&gt;&lt;/div&gt;&lt;/div&gt;" style="text;html=1;align=left;verticalAlign=middle;whiteSpace=wrap;rounded=0;" vertex="1" parent="XPY9D40w8w2zad9MLFeZ-11">
          <mxGeometry x="16" y="9" width="299" height="357" as="geometry" />
        </mxCell>
        <mxCell id="XPY9D40w8w2zad9MLFeZ-13" value="&lt;font style=&quot;font-size: 18px;&quot;&gt;User&lt;/font&gt;" style="swimlane;whiteSpace=wrap;html=1;swimlaneFillColor=#D4E1F5;fillColor=#7EA6E0;" vertex="1" parent="1">
          <mxGeometry x="112" y="495" width="404" height="434" as="geometry" />
        </mxCell>
        <mxCell id="XPY9D40w8w2zad9MLFeZ-14" value="&lt;font style=&quot;font-size: 16px;&quot;&gt;+ &lt;font color=&quot;#ff0000&quot;&gt;&lt;b&gt;_id&lt;/b&gt;&lt;/font&gt;: String (required)&lt;/font&gt;&lt;div style=&quot;font-size: 16px;&quot;&gt;&lt;font style=&quot;font-size: 16px;&quot;&gt;&lt;br&gt;&lt;/font&gt;&lt;div style=&quot;&quot;&gt;&lt;font style=&quot;font-size: 16px;&quot;&gt;+ &lt;font color=&quot;#ff0000&quot;&gt;&lt;b&gt;email&lt;/b&gt;&lt;/font&gt;: (unique, required)&lt;/font&gt;&lt;/div&gt;&lt;div style=&quot;&quot;&gt;&lt;font style=&quot;font-size: 16px;&quot;&gt;+ &lt;font color=&quot;#ff0000&quot;&gt;&lt;b&gt;password&lt;/b&gt;&lt;/font&gt;: required&lt;/font&gt;&lt;/div&gt;&lt;div style=&quot;&quot;&gt;&lt;font style=&quot;font-size: 16px;&quot;&gt;+ &lt;font color=&quot;#ff0000&quot;&gt;&lt;b&gt;username&lt;/b&gt;&lt;/font&gt;: (unique, required) default from email&lt;/font&gt;&lt;/div&gt;&lt;div style=&quot;&quot;&gt;&lt;font style=&quot;font-size: 16px;&quot;&gt;&lt;br&gt;&lt;/font&gt;&lt;/div&gt;&lt;div style=&quot;&quot;&gt;&lt;font style=&quot;font-size: 16px;&quot;&gt;+ &lt;font color=&quot;#ff0000&quot;&gt;&lt;b&gt;DisplayName&lt;/b&gt;&lt;/font&gt;: (optional) default from email&lt;/font&gt;&lt;/div&gt;&lt;div style=&quot;&quot;&gt;&lt;font style=&quot;font-size: 16px;&quot;&gt;+ &lt;font color=&quot;#ff0000&quot;&gt;&lt;b&gt;avatar&lt;/b&gt;&lt;/font&gt;: default from system img&lt;/font&gt;&lt;/div&gt;&lt;div style=&quot;&quot;&gt;&lt;font style=&quot;font-size: 16px;&quot;&gt;&lt;br&gt;&lt;/font&gt;&lt;/div&gt;&lt;div style=&quot;&quot;&gt;&lt;font style=&quot;font-size: 16px;&quot;&gt;+ &lt;font color=&quot;#ff0000&quot;&gt;&lt;b&gt;role&lt;/b&gt;&lt;/font&gt;: -&amp;gt; setDefault (&#39;client&#39;, &#39;admin&#39;, ...)&lt;/font&gt;&lt;/div&gt;&lt;div style=&quot;&quot;&gt;&lt;font style=&quot;font-size: 16px;&quot;&gt;&lt;br&gt;&lt;/font&gt;&lt;/div&gt;&lt;div style=&quot;&quot;&gt;&lt;font style=&quot;font-size: 16px;&quot;&gt;+ &lt;font color=&quot;#ff0000&quot;&gt;&lt;b&gt;isActive&lt;/b&gt;&lt;/font&gt;: Boolean &amp;lt;Default: false&amp;gt;&lt;/font&gt;&lt;/div&gt;&lt;div style=&quot;&quot;&gt;&lt;span style=&quot;background-color: initial;&quot;&gt;&lt;font style=&quot;font-size: 16px;&quot;&gt;+ &lt;font color=&quot;#ff0000&quot;&gt;&lt;b&gt;verifyToken&lt;/b&gt;&lt;/font&gt;: Random String or Null&lt;/font&gt;&lt;/span&gt;&lt;/div&gt;&lt;div style=&quot;&quot;&gt;&lt;span style=&quot;background-color: initial;&quot;&gt;&lt;font style=&quot;font-size: 16px;&quot;&gt;&lt;br&gt;&lt;/font&gt;&lt;/span&gt;&lt;/div&gt;&lt;div style=&quot;&quot;&gt;&lt;span style=&quot;background-color: initial;&quot;&gt;&lt;font style=&quot;font-size: 16px;&quot;&gt;+ &lt;font color=&quot;#ff0000&quot;&gt;&lt;b&gt;createdAt&lt;/b&gt;&lt;/font&gt;: Timestamp &amp;lt;Default: null&amp;gt;&lt;/font&gt;&lt;/span&gt;&lt;/div&gt;&lt;div style=&quot;&quot;&gt;&lt;font style=&quot;font-size: 16px;&quot;&gt;&lt;span style=&quot;background-color: initial;&quot;&gt;+ &lt;font color=&quot;#ff0000&quot;&gt;&lt;b&gt;updateAt&lt;/b&gt;&lt;/font&gt;:&amp;nbsp;&lt;/span&gt;&lt;span style=&quot;background-color: initial;&quot;&gt;Timestamp &amp;lt;Default: null&amp;gt;&lt;/span&gt;&lt;/font&gt;&lt;/div&gt;&lt;/div&gt;" style="text;html=1;align=left;verticalAlign=middle;whiteSpace=wrap;rounded=0;" vertex="1" parent="XPY9D40w8w2zad9MLFeZ-13">
          <mxGeometry x="10" y="10.5" width="394" height="414.5" as="geometry" />
        </mxCell>
        <mxCell id="XPY9D40w8w2zad9MLFeZ-16" value="&lt;font style=&quot;font-size: 18px;&quot;&gt;Invitation&lt;/font&gt;" style="swimlane;whiteSpace=wrap;html=1;swimlaneFillColor=#D4E1F5;fillColor=#7EA6E0;startSize=23;" vertex="1" parent="1">
          <mxGeometry x="624" y="491" width="362" height="462" as="geometry" />
        </mxCell>
        <mxCell id="XPY9D40w8w2zad9MLFeZ-17" value="&lt;font style=&quot;font-size: 16px;&quot;&gt;+ &lt;font color=&quot;#ff0000&quot;&gt;&lt;b&gt;_id&lt;/b&gt;&lt;/font&gt;: String (required)&lt;/font&gt;&lt;div style=&quot;font-size: 16px;&quot;&gt;&lt;font style=&quot;font-size: 16px;&quot;&gt;&lt;br&gt;&lt;/font&gt;&lt;div style=&quot;&quot;&gt;&lt;font style=&quot;font-size: 16px;&quot;&gt;+ &lt;font color=&quot;#ff0000&quot;&gt;&lt;b&gt;inviterId&lt;/b&gt;&lt;/font&gt;: ObjectId (required)&lt;/font&gt;&lt;/div&gt;&lt;div style=&quot;&quot;&gt;&lt;font style=&quot;font-size: 16px;&quot;&gt;&lt;br&gt;&lt;/font&gt;&lt;/div&gt;&lt;div style=&quot;&quot;&gt;&lt;font style=&quot;font-size: 16px;&quot;&gt;+ &lt;font color=&quot;#ff0000&quot;&gt;&lt;b&gt;inviteeId&lt;/b&gt;&lt;/font&gt;:&amp;nbsp;&lt;span style=&quot;background-color: initial;&quot;&gt;ObjectId (required)&lt;/span&gt;&lt;/font&gt;&lt;/div&gt;&lt;div style=&quot;&quot;&gt;&lt;span style=&quot;background-color: initial;&quot;&gt;&lt;font style=&quot;font-size: 16px;&quot;&gt;&lt;br&gt;&lt;/font&gt;&lt;/span&gt;&lt;/div&gt;&lt;div style=&quot;&quot;&gt;&lt;font style=&quot;font-size: 16px;&quot;&gt;+ &lt;font color=&quot;#ff0000&quot;&gt;&lt;b&gt;type&lt;/b&gt;&lt;/font&gt;: String (required)&lt;/font&gt;&lt;/div&gt;&lt;div style=&quot;&quot;&gt;&lt;font style=&quot;font-size: 16px;&quot;&gt;&lt;br&gt;&lt;/font&gt;&lt;/div&gt;&lt;div style=&quot;&quot;&gt;&lt;font style=&quot;font-size: 16px;&quot;&gt;+ &lt;font color=&quot;#ff0000&quot;&gt;&lt;b&gt;courseInvitation&lt;/b&gt;&lt;/font&gt;: Json Object&lt;/font&gt;&lt;/div&gt;&lt;div style=&quot;&quot;&gt;&lt;font style=&quot;font-size: 16px;&quot;&gt;&lt;span style=&quot;white-space: pre;&quot;&gt;&#x9;&lt;/span&gt;{&lt;br&gt;&lt;/font&gt;&lt;/div&gt;&lt;div style=&quot;&quot;&gt;&lt;font style=&quot;font-size: 16px;&quot;&gt;&lt;span style=&quot;white-space: pre;&quot;&gt;&#x9;&lt;/span&gt;&lt;span style=&quot;white-space: pre;&quot;&gt;&#x9;&lt;/span&gt;&lt;font color=&quot;#ff0000&quot;&gt;&lt;b&gt;courseId&lt;/b&gt;&lt;/font&gt;:&amp;nbsp;&lt;span style=&quot;background-color: initial;&quot;&gt;ObjectId (optional),&lt;/span&gt;&lt;br&gt;&lt;/font&gt;&lt;/div&gt;&lt;div style=&quot;&quot;&gt;&lt;font style=&quot;font-size: 16px;&quot;&gt;&lt;span style=&quot;white-space: pre;&quot;&gt;&#x9;&lt;/span&gt;&lt;span style=&quot;white-space: pre;&quot;&gt;&#x9;&lt;/span&gt;&lt;font color=&quot;#ff0000&quot;&gt;&lt;b&gt;status&lt;/b&gt;&lt;/font&gt;: String (&lt;span style=&quot;background-color: initial;&quot;&gt;optional)&lt;/span&gt;&lt;br&gt;&lt;/font&gt;&lt;/div&gt;&lt;div style=&quot;&quot;&gt;&lt;span style=&quot;background-color: initial;&quot;&gt;&lt;font style=&quot;font-size: 16px;&quot;&gt;&lt;span style=&quot;white-space: pre;&quot;&gt;&#x9;&lt;/span&gt;}&lt;br&gt;&lt;/font&gt;&lt;/span&gt;&lt;/div&gt;&lt;div style=&quot;&quot;&gt;&lt;font style=&quot;font-size: 16px;&quot;&gt;&lt;br&gt;&lt;/font&gt;&lt;/div&gt;&lt;div style=&quot;&quot;&gt;&lt;span style=&quot;background-color: initial;&quot;&gt;&lt;font style=&quot;font-size: 16px;&quot;&gt;&lt;br&gt;&lt;/font&gt;&lt;/span&gt;&lt;/div&gt;&lt;div style=&quot;&quot;&gt;&lt;span style=&quot;background-color: initial;&quot;&gt;&lt;font style=&quot;font-size: 16px;&quot;&gt;+ &lt;font color=&quot;#ff0000&quot;&gt;&lt;b&gt;createdAt&lt;/b&gt;&lt;/font&gt;: Timestamp &amp;lt;Default: null&amp;gt;&lt;/font&gt;&lt;/span&gt;&lt;/div&gt;&lt;div style=&quot;&quot;&gt;&lt;font style=&quot;font-size: 16px;&quot;&gt;&lt;span style=&quot;background-color: initial;&quot;&gt;+ &lt;font color=&quot;#ff0000&quot;&gt;&lt;b&gt;updateAt&lt;/b&gt;&lt;/font&gt;:&amp;nbsp;&lt;/span&gt;&lt;span style=&quot;background-color: initial;&quot;&gt;Timestamp &amp;lt;Default: null&amp;gt;&lt;/span&gt;&lt;/font&gt;&lt;/div&gt;&lt;div style=&quot;&quot;&gt;&lt;span style=&quot;background-color: initial;&quot;&gt;&lt;font style=&quot;font-size: 16px;&quot;&gt;&lt;br&gt;&lt;/font&gt;&lt;/span&gt;&lt;/div&gt;&lt;div style=&quot;&quot;&gt;&lt;span style=&quot;background-color: initial;&quot;&gt;&lt;font style=&quot;font-size: 16px;&quot;&gt;+ &lt;font color=&quot;#ff0000&quot;&gt;&lt;b&gt;_destroy&lt;/b&gt;&lt;/font&gt;: Boolean &amp;lt;Default: false&amp;gt;&lt;/font&gt;&lt;/span&gt;&lt;/div&gt;&lt;/div&gt;" style="text;html=1;align=left;verticalAlign=middle;whiteSpace=wrap;rounded=0;" vertex="1" parent="XPY9D40w8w2zad9MLFeZ-16">
          <mxGeometry x="15" y="14.5" width="352" height="447" as="geometry" />
        </mxCell>
        <mxCell id="XPY9D40w8w2zad9MLFeZ-18" value="&lt;font style=&quot;font-size: 18px;&quot;&gt;Lesson&lt;/font&gt;" style="swimlane;whiteSpace=wrap;html=1;swimlaneFillColor=#D4E1F5;fillColor=#7EA6E0;startSize=23;fontColor=#333333;strokeColor=#666666;" vertex="1" parent="1">
          <mxGeometry x="1100" y="48.5" width="415" height="772" as="geometry" />
        </mxCell>
        <mxCell id="XPY9D40w8w2zad9MLFeZ-19" value="&lt;font style=&quot;font-size: 16px;&quot;&gt;+ &lt;font color=&quot;#ff0000&quot;&gt;&lt;b&gt;_id&lt;/b&gt;&lt;/font&gt;: String (required)&lt;/font&gt;&lt;div style=&quot;font-size: 16px;&quot;&gt;&lt;font style=&quot;font-size: 16px;&quot;&gt;&lt;br&gt;&lt;/font&gt;&lt;/div&gt;&lt;div style=&quot;font-size: 16px;&quot;&gt;&lt;font style=&quot;font-size: 16px;&quot;&gt;+ &lt;font color=&quot;#ff0000&quot;&gt;&lt;b&gt;courseId&lt;/b&gt;&lt;/font&gt;: String (required)&lt;/font&gt;&lt;/div&gt;&lt;div style=&quot;font-size: 16px;&quot;&gt;&lt;font style=&quot;font-size: 16px;&quot;&gt;&lt;br&gt;&lt;/font&gt;&lt;div style=&quot;&quot;&gt;&lt;font style=&quot;font-size: 16px;&quot;&gt;+&amp;nbsp;&lt;span style=&quot;background-color: initial;&quot;&gt;&lt;font color=&quot;#ff0000&quot;&gt;&lt;b&gt;title&lt;/b&gt;&lt;/font&gt;: String (required, min, max)&lt;/span&gt;&lt;/font&gt;&lt;/div&gt;&lt;div style=&quot;&quot;&gt;&lt;font style=&quot;font-size: 16px;&quot;&gt;&lt;br&gt;&lt;/font&gt;&lt;/div&gt;&lt;div style=&quot;&quot;&gt;&lt;font style=&quot;font-size: 16px;&quot;&gt;+ &lt;font color=&quot;#ff0000&quot;&gt;&lt;b&gt;description&lt;/b&gt;&lt;/font&gt;:&amp;nbsp;&lt;span style=&quot;background-color: initial;&quot;&gt;String &amp;lt;Default: null&amp;gt;&lt;/span&gt;&lt;/font&gt;&lt;/div&gt;&lt;div style=&quot;&quot;&gt;&lt;span style=&quot;background-color: initial;&quot;&gt;&lt;font style=&quot;font-size: 16px;&quot;&gt;&lt;br&gt;&lt;/font&gt;&lt;/span&gt;&lt;/div&gt;&lt;div style=&quot;&quot;&gt;&lt;font style=&quot;font-size: 16px;&quot;&gt;&lt;span style=&quot;background-color: initial;&quot;&gt;+ &lt;font color=&quot;#ff0000&quot;&gt;&lt;b&gt;cover&lt;/b&gt;&lt;/font&gt;: String&amp;nbsp;&lt;/span&gt;&lt;span style=&quot;background-color: initial;&quot;&gt;&amp;lt;Default: null&amp;gt;&lt;/span&gt;&lt;/font&gt;&lt;/div&gt;&lt;div style=&quot;&quot;&gt;&lt;span style=&quot;background-color: initial;&quot;&gt;&lt;font style=&quot;font-size: 16px;&quot;&gt;&lt;br&gt;&lt;/font&gt;&lt;/span&gt;&lt;/div&gt;&lt;div style=&quot;&quot;&gt;&lt;div&gt;&lt;font style=&quot;font-size: 16px;&quot;&gt;+ &lt;font color=&quot;#ff0000&quot;&gt;&lt;b&gt;memberIds&lt;/b&gt;&lt;/font&gt;:&amp;nbsp;&lt;span style=&quot;background-color: initial;&quot;&gt;Array of Ids &amp;lt;Default: []&amp;gt;&lt;/span&gt;&lt;/font&gt;&lt;/div&gt;&lt;/div&gt;&lt;div style=&quot;&quot;&gt;&lt;span style=&quot;background-color: initial;&quot;&gt;&lt;font style=&quot;font-size: 16px;&quot;&gt;&lt;br&gt;&lt;/font&gt;&lt;/span&gt;&lt;/div&gt;&lt;div style=&quot;&quot;&gt;&lt;font style=&quot;font-size: 16px;&quot;&gt;&lt;br&gt;&lt;/font&gt;&lt;/div&gt;&lt;div style=&quot;&quot;&gt;&lt;font style=&quot;font-size: 16px;&quot;&gt;+ &lt;font color=&quot;#ff0000&quot;&gt;&lt;b&gt;comments&lt;/b&gt;&lt;/font&gt;: Array &amp;lt;Default: []&amp;gt;&lt;/font&gt;&lt;/div&gt;&lt;div style=&quot;&quot;&gt;&lt;font style=&quot;font-size: 16px;&quot;&gt;&lt;span style=&quot;white-space: pre;&quot;&gt;&#x9;&lt;/span&gt;{&lt;br&gt;&lt;/font&gt;&lt;/div&gt;&lt;div style=&quot;&quot;&gt;&lt;font style=&quot;font-size: 16px;&quot;&gt;&lt;span style=&quot;white-space: pre;&quot;&gt;&#x9;&lt;/span&gt;&lt;span style=&quot;white-space: pre;&quot;&gt;&#x9;&lt;/span&gt;&lt;font color=&quot;#ff0000&quot;&gt;&lt;b&gt;userId&lt;/b&gt;&lt;/font&gt;: String,&lt;br&gt;&lt;/font&gt;&lt;/div&gt;&lt;div style=&quot;&quot;&gt;&lt;font style=&quot;font-size: 16px;&quot;&gt;&lt;span style=&quot;white-space: pre;&quot;&gt;&#x9;&lt;/span&gt;&lt;span style=&quot;white-space: pre;&quot;&gt;&#x9;&lt;/span&gt;&lt;font color=&quot;#ff0000&quot;&gt;&lt;b&gt;userEmail&lt;/b&gt;&lt;/font&gt;: String,&lt;br&gt;&lt;/font&gt;&lt;/div&gt;&lt;div style=&quot;&quot;&gt;&lt;font style=&quot;font-size: 16px;&quot;&gt;&lt;span style=&quot;white-space: pre;&quot;&gt;&#x9;&lt;/span&gt;&lt;span style=&quot;white-space: pre;&quot;&gt;&#x9;&lt;/span&gt;&lt;font color=&quot;#ff0000&quot;&gt;&lt;b&gt;userAvatar&lt;/b&gt;&lt;/font&gt;: String,&lt;br&gt;&lt;/font&gt;&lt;/div&gt;&lt;div style=&quot;&quot;&gt;&lt;font style=&quot;font-size: 16px;&quot;&gt;&lt;span style=&quot;white-space: pre;&quot;&gt;&#x9;&lt;/span&gt;&lt;span style=&quot;white-space: pre;&quot;&gt;&#x9;&lt;/span&gt;&lt;font color=&quot;#ff0000&quot;&gt;&lt;b&gt;userDisplayName&lt;/b&gt;&lt;/font&gt;: String,&lt;br&gt;&lt;/font&gt;&lt;/div&gt;&lt;div style=&quot;&quot;&gt;&lt;font style=&quot;font-size: 16px;&quot;&gt;&lt;span style=&quot;white-space: pre;&quot;&gt;&#x9;&lt;/span&gt;&lt;span style=&quot;white-space: pre;&quot;&gt;&#x9;&lt;/span&gt;&lt;font color=&quot;#ff0000&quot;&gt;&lt;b&gt;content&lt;/b&gt;&lt;/font&gt;: String,&lt;br&gt;&lt;/font&gt;&lt;/div&gt;&lt;div style=&quot;&quot;&gt;&lt;font style=&quot;font-size: 16px;&quot;&gt;&lt;span style=&quot;white-space: pre;&quot;&gt;&#x9;&lt;/span&gt;&lt;span style=&quot;white-space: pre;&quot;&gt;&#x9;&lt;/span&gt;&lt;font color=&quot;#ff0000&quot;&gt;&lt;b&gt;createdAt&lt;/b&gt;&lt;/font&gt;: Timestamp&lt;br&gt;&lt;/font&gt;&lt;/div&gt;&lt;div style=&quot;&quot;&gt;&lt;span style=&quot;background-color: initial;&quot;&gt;&lt;font style=&quot;font-size: 16px;&quot;&gt;&lt;span style=&quot;white-space: pre;&quot;&gt;&#x9;&lt;/span&gt;}&lt;br&gt;&lt;/font&gt;&lt;/span&gt;&lt;/div&gt;&lt;div style=&quot;&quot;&gt;&lt;span style=&quot;background-color: initial;&quot;&gt;&lt;font style=&quot;font-size: 16px;&quot;&gt;&lt;br&gt;&lt;/font&gt;&lt;/span&gt;&lt;/div&gt;&lt;div style=&quot;&quot;&gt;&lt;div&gt;&lt;font style=&quot;font-size: 16px;&quot;&gt;+ &lt;font color=&quot;#ff0000&quot;&gt;&lt;b&gt;attachments&lt;/b&gt;&lt;/font&gt;: Array of Ids &amp;lt;Default: []&amp;gt;&lt;/font&gt;&lt;/div&gt;&lt;div&gt;&lt;font style=&quot;font-size: 16px;&quot;&gt;&lt;span style=&quot;white-space: pre;&quot;&gt;&#x9;&lt;/span&gt;{&lt;br&gt;&lt;/font&gt;&lt;/div&gt;&lt;div&gt;&lt;font style=&quot;font-size: 16px;&quot;&gt;&lt;span style=&quot;white-space: pre;&quot;&gt;&#x9;&lt;/span&gt;&lt;span style=&quot;white-space: pre;&quot;&gt;&#x9;&lt;/span&gt;&lt;font color=&quot;#ff0000&quot;&gt;&lt;b&gt;fileName&lt;/b&gt;&lt;/font&gt;: String,&lt;br&gt;&lt;/font&gt;&lt;/div&gt;&lt;div&gt;&lt;font style=&quot;font-size: 16px;&quot;&gt;&lt;span style=&quot;white-space: pre;&quot;&gt;&#x9;&lt;/span&gt;&lt;span style=&quot;white-space: pre;&quot;&gt;&#x9;&lt;/span&gt;&lt;font color=&quot;#ff0000&quot;&gt;&lt;b&gt;fileType&lt;/b&gt;&lt;/font&gt;: String,&lt;br&gt;&lt;/font&gt;&lt;/div&gt;&lt;div&gt;&lt;font style=&quot;font-size: 16px;&quot;&gt;&lt;span style=&quot;white-space: pre;&quot;&gt;&#x9;&lt;/span&gt;&lt;span style=&quot;white-space: pre;&quot;&gt;&#x9;&lt;/span&gt;&lt;font color=&quot;#ff0000&quot;&gt;&lt;b&gt;fileURL&lt;/b&gt;&lt;/font&gt;: String,&lt;/font&gt;&lt;/div&gt;&lt;div&gt;&lt;font style=&quot;font-size: 16px;&quot;&gt;&lt;span style=&quot;white-space: pre;&quot;&gt;&#x9;&lt;/span&gt;&lt;span style=&quot;white-space: pre;&quot;&gt;&#x9;&lt;/span&gt;&lt;font color=&quot;#ff0000&quot;&gt;&lt;b&gt;createdAt&lt;/b&gt;&lt;/font&gt;: Timestamp&lt;br&gt;&lt;/font&gt;&lt;/div&gt;&lt;div&gt;&lt;span style=&quot;background-color: initial;&quot;&gt;&lt;font style=&quot;font-size: 16px;&quot;&gt;&lt;span style=&quot;white-space: pre;&quot;&gt;&#x9;&lt;/span&gt;}&lt;/font&gt;&lt;/span&gt;&lt;/div&gt;&lt;/div&gt;&lt;div style=&quot;&quot;&gt;&lt;font style=&quot;font-size: 16px;&quot;&gt;&lt;br&gt;&lt;/font&gt;&lt;/div&gt;&lt;div style=&quot;&quot;&gt;&lt;span style=&quot;background-color: initial;&quot;&gt;&lt;font style=&quot;font-size: 16px;&quot;&gt;&lt;br&gt;&lt;/font&gt;&lt;/span&gt;&lt;/div&gt;&lt;div style=&quot;&quot;&gt;&lt;span style=&quot;background-color: initial;&quot;&gt;&lt;font style=&quot;font-size: 16px;&quot;&gt;+ &lt;font color=&quot;#ff0000&quot;&gt;&lt;b&gt;createdAt&lt;/b&gt;&lt;/font&gt;: Timestamp &amp;lt;Default: null&amp;gt;&lt;/font&gt;&lt;/span&gt;&lt;/div&gt;&lt;div style=&quot;&quot;&gt;&lt;font style=&quot;font-size: 16px;&quot;&gt;&lt;span style=&quot;background-color: initial;&quot;&gt;+ &lt;font color=&quot;#ff0000&quot;&gt;&lt;b&gt;updateAt&lt;/b&gt;&lt;/font&gt;:&amp;nbsp;&lt;/span&gt;&lt;span style=&quot;background-color: initial;&quot;&gt;Timestamp &amp;lt;Default: null&amp;gt;&lt;/span&gt;&lt;/font&gt;&lt;/div&gt;&lt;div style=&quot;&quot;&gt;&lt;span style=&quot;background-color: initial;&quot;&gt;&lt;font style=&quot;font-size: 16px;&quot;&gt;&lt;br&gt;&lt;/font&gt;&lt;/span&gt;&lt;/div&gt;&lt;div style=&quot;&quot;&gt;&lt;span style=&quot;background-color: initial;&quot;&gt;&lt;font style=&quot;font-size: 16px;&quot;&gt;+ &lt;font color=&quot;#ff0000&quot;&gt;&lt;b&gt;_destroy&lt;/b&gt;&lt;/font&gt;: Boolean &amp;lt;Default: false&amp;gt;&lt;/font&gt;&lt;/span&gt;&lt;/div&gt;&lt;/div&gt;" style="text;html=1;align=left;verticalAlign=middle;whiteSpace=wrap;rounded=0;" vertex="1" parent="XPY9D40w8w2zad9MLFeZ-18">
          <mxGeometry x="23" y="15" width="405" height="757" as="geometry" />
        </mxCell>
      </root>
    </mxGraphModel>
  </diagram>
  <diagram id="8WcCazWheK_KMTY2MkVs" name="Trang-2">
    <mxGraphModel dx="1434" dy="696" grid="1" gridSize="10" guides="1" tooltips="1" connect="1" arrows="1" fold="1" page="1" pageScale="1" pageWidth="827" pageHeight="1169" math="0" shadow="0">
      <root>
        <mxCell id="0" />
        <mxCell id="1" parent="0" />
        <mxCell id="b9aDnPX4whqVVSoq2VFZ-1" value="Singapore Region&lt;div&gt;&lt;br&gt;&lt;/div&gt;" style="points=[[0,0],[0.25,0],[0.5,0],[0.75,0],[1,0],[1,0.25],[1,0.5],[1,0.75],[1,1],[0.75,1],[0.5,1],[0.25,1],[0,1],[0,0.75],[0,0.5],[0,0.25]];outlineConnect=0;gradientColor=none;html=1;whiteSpace=wrap;fontSize=12;fontStyle=0;container=1;pointerEvents=0;collapsible=0;recursiveResize=0;shape=mxgraph.aws4.group;grIcon=mxgraph.aws4.group_region;strokeColor=#00A4A6;fillColor=none;verticalAlign=top;align=left;spacingLeft=30;fontColor=#147EBA;dashed=1;" vertex="1" parent="1">
          <mxGeometry x="40" y="40" width="760" height="530" as="geometry" />
        </mxCell>
        <mxCell id="b9aDnPX4whqVVSoq2VFZ-3" value="VPC 10.0.0.0/16" style="sketch=0;outlineConnect=0;gradientColor=none;html=1;whiteSpace=wrap;fontSize=12;fontStyle=0;shape=mxgraph.aws4.group;grIcon=mxgraph.aws4.group_vpc;strokeColor=#879196;fillColor=none;verticalAlign=top;align=left;spacingLeft=30;fontColor=#879196;dashed=0;" vertex="1" parent="b9aDnPX4whqVVSoq2VFZ-1">
          <mxGeometry x="50" y="45" width="640" height="390" as="geometry" />
        </mxCell>
        <mxCell id="b9aDnPX4whqVVSoq2VFZ-4" value="Availability Zone" style="fillColor=none;strokeColor=#147EBA;dashed=1;verticalAlign=top;fontStyle=0;fontColor=#147EBA;whiteSpace=wrap;html=1;movable=1;resizable=1;rotatable=1;deletable=1;editable=1;locked=0;connectable=1;" vertex="1" parent="b9aDnPX4whqVVSoq2VFZ-1">
          <mxGeometry x="24" y="70" width="700" height="170" as="geometry" />
        </mxCell>
        <mxCell id="b9aDnPX4whqVVSoq2VFZ-9" value="Public subnet" style="points=[[0,0],[0.25,0],[0.5,0],[0.75,0],[1,0],[1,0.25],[1,0.5],[1,0.75],[1,1],[0.75,1],[0.5,1],[0.25,1],[0,1],[0,0.75],[0,0.5],[0,0.25]];outlineConnect=0;gradientColor=none;html=1;whiteSpace=wrap;fontSize=12;fontStyle=0;container=1;pointerEvents=0;collapsible=0;recursiveResize=0;shape=mxgraph.aws4.group;grIcon=mxgraph.aws4.group_security_group;grStroke=0;strokeColor=#7AA116;fillColor=#F2F6E8;verticalAlign=top;align=left;spacingLeft=30;fontColor=#248814;dashed=0;" vertex="1" parent="b9aDnPX4whqVVSoq2VFZ-1">
          <mxGeometry x="90" y="110" width="210" height="110" as="geometry" />
        </mxCell>
        <mxCell id="b9aDnPX4whqVVSoq2VFZ-10" value="Private subnet" style="points=[[0,0],[0.25,0],[0.5,0],[0.75,0],[1,0],[1,0.25],[1,0.5],[1,0.75],[1,1],[0.75,1],[0.5,1],[0.25,1],[0,1],[0,0.75],[0,0.5],[0,0.25]];outlineConnect=0;gradientColor=none;html=1;whiteSpace=wrap;fontSize=12;fontStyle=0;container=1;pointerEvents=0;collapsible=0;recursiveResize=0;shape=mxgraph.aws4.group;grIcon=mxgraph.aws4.group_security_group;grStroke=0;strokeColor=#00A4A6;fillColor=#E6F6F7;verticalAlign=top;align=left;spacingLeft=30;fontColor=#147EBA;dashed=0;" vertex="1" parent="b9aDnPX4whqVVSoq2VFZ-1">
          <mxGeometry x="430" y="110" width="210" height="110" as="geometry" />
        </mxCell>
        <mxCell id="b9aDnPX4whqVVSoq2VFZ-16" value="Public subnet-1&lt;div&gt;10.0.0.0/22&lt;/div&gt;" style="points=[[0,0],[0.25,0],[0.5,0],[0.75,0],[1,0],[1,0.25],[1,0.5],[1,0.75],[1,1],[0.75,1],[0.5,1],[0.25,1],[0,1],[0,0.75],[0,0.5],[0,0.25]];outlineConnect=0;gradientColor=none;html=1;whiteSpace=wrap;fontSize=12;fontStyle=0;container=1;pointerEvents=0;collapsible=0;recursiveResize=0;shape=mxgraph.aws4.group;grIcon=mxgraph.aws4.group_security_group;grStroke=0;strokeColor=#7AA116;fillColor=#F2F6E8;verticalAlign=top;align=left;spacingLeft=30;fontColor=#248814;dashed=0;" vertex="1" parent="b9aDnPX4whqVVSoq2VFZ-1">
          <mxGeometry x="90" y="110" width="210" height="110" as="geometry" />
        </mxCell>
        <mxCell id="b9aDnPX4whqVVSoq2VFZ-32" value="NAT" style="sketch=0;outlineConnect=0;fontColor=#232F3E;gradientColor=none;fillColor=#8C4FFF;strokeColor=none;dashed=0;verticalLabelPosition=bottom;verticalAlign=top;align=center;html=1;fontSize=12;fontStyle=0;aspect=fixed;pointerEvents=1;shape=mxgraph.aws4.nat_gateway;" vertex="1" parent="b9aDnPX4whqVVSoq2VFZ-16">
          <mxGeometry x="140" y="33" width="44" height="44" as="geometry" />
        </mxCell>
        <mxCell id="b9aDnPX4whqVVSoq2VFZ-17" value="Private subnet-1&lt;div&gt;10.0.8.0/22&lt;/div&gt;" style="points=[[0,0],[0.25,0],[0.5,0],[0.75,0],[1,0],[1,0.25],[1,0.5],[1,0.75],[1,1],[0.75,1],[0.5,1],[0.25,1],[0,1],[0,0.75],[0,0.5],[0,0.25]];outlineConnect=0;gradientColor=none;html=1;whiteSpace=wrap;fontSize=12;fontStyle=0;container=1;pointerEvents=0;collapsible=0;recursiveResize=0;shape=mxgraph.aws4.group;grIcon=mxgraph.aws4.group_security_group;grStroke=0;strokeColor=#00A4A6;fillColor=#E6F6F7;verticalAlign=top;align=left;spacingLeft=30;fontColor=#147EBA;dashed=0;" vertex="1" parent="b9aDnPX4whqVVSoq2VFZ-1">
          <mxGeometry x="430" y="110" width="210" height="110" as="geometry" />
        </mxCell>
        <mxCell id="b9aDnPX4whqVVSoq2VFZ-18" value="Availability Zone" style="fillColor=none;strokeColor=#147EBA;dashed=1;verticalAlign=top;fontStyle=0;fontColor=#147EBA;whiteSpace=wrap;html=1;movable=1;resizable=1;rotatable=1;deletable=1;editable=1;locked=0;connectable=1;" vertex="1" parent="b9aDnPX4whqVVSoq2VFZ-1">
          <mxGeometry x="30" y="250" width="700" height="170" as="geometry" />
        </mxCell>
        <mxCell id="b9aDnPX4whqVVSoq2VFZ-19" value="Private subnet-2&lt;div&gt;10.0.12.0/22&lt;/div&gt;" style="points=[[0,0],[0.25,0],[0.5,0],[0.75,0],[1,0],[1,0.25],[1,0.5],[1,0.75],[1,1],[0.75,1],[0.5,1],[0.25,1],[0,1],[0,0.75],[0,0.5],[0,0.25]];outlineConnect=0;gradientColor=none;html=1;whiteSpace=wrap;fontSize=12;fontStyle=0;container=1;pointerEvents=0;collapsible=0;recursiveResize=0;shape=mxgraph.aws4.group;grIcon=mxgraph.aws4.group_security_group;grStroke=0;strokeColor=#00A4A6;fillColor=#E6F6F7;verticalAlign=top;align=left;spacingLeft=30;fontColor=#147EBA;dashed=0;" vertex="1" parent="b9aDnPX4whqVVSoq2VFZ-1">
          <mxGeometry x="430" y="280" width="210" height="110" as="geometry" />
        </mxCell>
        <mxCell id="b9aDnPX4whqVVSoq2VFZ-20" value="Public subnet-2&lt;div&gt;10.0.4.0/22&lt;/div&gt;" style="points=[[0,0],[0.25,0],[0.5,0],[0.75,0],[1,0],[1,0.25],[1,0.5],[1,0.75],[1,1],[0.75,1],[0.5,1],[0.25,1],[0,1],[0,0.75],[0,0.5],[0,0.25]];outlineConnect=0;gradientColor=none;html=1;whiteSpace=wrap;fontSize=12;fontStyle=0;container=1;pointerEvents=0;collapsible=0;recursiveResize=0;shape=mxgraph.aws4.group;grIcon=mxgraph.aws4.group_security_group;grStroke=0;strokeColor=#7AA116;fillColor=#F2F6E8;verticalAlign=top;align=left;spacingLeft=30;fontColor=#248814;dashed=0;" vertex="1" parent="b9aDnPX4whqVVSoq2VFZ-1">
          <mxGeometry x="90" y="280" width="210" height="110" as="geometry" />
        </mxCell>
        <mxCell id="b9aDnPX4whqVVSoq2VFZ-21" value="IGW" style="sketch=0;outlineConnect=0;fontColor=#232F3E;gradientColor=none;fillColor=#8C4FFF;strokeColor=none;dashed=0;verticalLabelPosition=bottom;verticalAlign=top;align=center;html=1;fontSize=12;fontStyle=0;aspect=fixed;pointerEvents=1;shape=mxgraph.aws4.internet_gateway;" vertex="1" parent="b9aDnPX4whqVVSoq2VFZ-1">
          <mxGeometry x="30" y="120" width="38" height="38" as="geometry" />
        </mxCell>
        <mxCell id="b9aDnPX4whqVVSoq2VFZ-77" value="s3 endpoint" style="sketch=0;outlineConnect=0;fontColor=#232F3E;gradientColor=none;fillColor=#8C4FFF;strokeColor=none;dashed=0;verticalLabelPosition=bottom;verticalAlign=top;align=center;html=1;fontSize=12;fontStyle=0;aspect=fixed;pointerEvents=1;shape=mxgraph.aws4.endpoint;" vertex="1" parent="b9aDnPX4whqVVSoq2VFZ-1">
          <mxGeometry x="370" y="410" width="38" height="38" as="geometry" />
        </mxCell>
        <mxCell id="b9aDnPX4whqVVSoq2VFZ-76" value="s3" style="sketch=0;points=[[0,0,0],[0.25,0,0],[0.5,0,0],[0.75,0,0],[1,0,0],[0,1,0],[0.25,1,0],[0.5,1,0],[0.75,1,0],[1,1,0],[0,0.25,0],[0,0.5,0],[0,0.75,0],[1,0.25,0],[1,0.5,0],[1,0.75,0]];outlineConnect=0;fontColor=#232F3E;fillColor=#7AA116;strokeColor=#ffffff;dashed=0;verticalLabelPosition=bottom;verticalAlign=top;align=center;html=1;fontSize=12;fontStyle=0;aspect=fixed;shape=mxgraph.aws4.resourceIcon;resIcon=mxgraph.aws4.s3;" vertex="1" parent="b9aDnPX4whqVVSoq2VFZ-1">
          <mxGeometry x="490" y="460" width="48" height="48" as="geometry" />
        </mxCell>
        <mxCell id="b9aDnPX4whqVVSoq2VFZ-78" style="edgeStyle=orthogonalEdgeStyle;rounded=0;orthogonalLoop=1;jettySize=auto;html=1;entryX=0;entryY=0.5;entryDx=0;entryDy=0;entryPerimeter=0;" edge="1" parent="b9aDnPX4whqVVSoq2VFZ-1" source="b9aDnPX4whqVVSoq2VFZ-77" target="b9aDnPX4whqVVSoq2VFZ-76">
          <mxGeometry relative="1" as="geometry">
            <Array as="points">
              <mxPoint x="389" y="484" />
            </Array>
          </mxGeometry>
        </mxCell>
        <mxCell id="b9aDnPX4whqVVSoq2VFZ-33" value="Singapore Region&lt;div&gt;&lt;br&gt;&lt;/div&gt;" style="points=[[0,0],[0.25,0],[0.5,0],[0.75,0],[1,0],[1,0.25],[1,0.5],[1,0.75],[1,1],[0.75,1],[0.5,1],[0.25,1],[0,1],[0,0.75],[0,0.5],[0,0.25]];outlineConnect=0;gradientColor=none;html=1;whiteSpace=wrap;fontSize=12;fontStyle=0;container=1;pointerEvents=0;collapsible=0;recursiveResize=0;shape=mxgraph.aws4.group;grIcon=mxgraph.aws4.group_region;strokeColor=#00A4A6;fillColor=none;verticalAlign=top;align=left;spacingLeft=30;fontColor=#147EBA;dashed=1;" vertex="1" parent="1">
          <mxGeometry x="130" y="620" width="670" height="448" as="geometry" />
        </mxCell>
        <mxCell id="b9aDnPX4whqVVSoq2VFZ-34" value="VPC 10.0.0.0/16" style="sketch=0;outlineConnect=0;gradientColor=none;html=1;whiteSpace=wrap;fontSize=12;fontStyle=0;shape=mxgraph.aws4.group;grIcon=mxgraph.aws4.group_vpc;strokeColor=#879196;fillColor=none;verticalAlign=top;align=left;spacingLeft=30;fontColor=#879196;dashed=0;" vertex="1" parent="b9aDnPX4whqVVSoq2VFZ-33">
          <mxGeometry x="50" y="60" width="570" height="345" as="geometry" />
        </mxCell>
        <mxCell id="b9aDnPX4whqVVSoq2VFZ-54" value="" style="edgeStyle=orthogonalEdgeStyle;rounded=0;orthogonalLoop=1;jettySize=auto;html=1;" edge="1" parent="b9aDnPX4whqVVSoq2VFZ-33" source="b9aDnPX4whqVVSoq2VFZ-45" target="b9aDnPX4whqVVSoq2VFZ-53">
          <mxGeometry relative="1" as="geometry" />
        </mxCell>
        <mxCell id="b9aDnPX4whqVVSoq2VFZ-55" value="80" style="edgeLabel;html=1;align=center;verticalAlign=middle;resizable=0;points=[];" vertex="1" connectable="0" parent="b9aDnPX4whqVVSoq2VFZ-54">
          <mxGeometry x="0.0105" y="-1" relative="1" as="geometry">
            <mxPoint y="1" as="offset" />
          </mxGeometry>
        </mxCell>
        <mxCell id="b9aDnPX4whqVVSoq2VFZ-45" value="public-sg" style="fillColor=none;strokeColor=#DD3522;verticalAlign=top;fontStyle=0;fontColor=#DD3522;whiteSpace=wrap;html=1;" vertex="1" parent="b9aDnPX4whqVVSoq2VFZ-33">
          <mxGeometry x="90" y="152.5" width="100" height="160" as="geometry" />
        </mxCell>
        <mxCell id="b9aDnPX4whqVVSoq2VFZ-61" value="" style="edgeStyle=orthogonalEdgeStyle;rounded=0;orthogonalLoop=1;jettySize=auto;html=1;" edge="1" parent="b9aDnPX4whqVVSoq2VFZ-33" source="b9aDnPX4whqVVSoq2VFZ-53" target="b9aDnPX4whqVVSoq2VFZ-60">
          <mxGeometry relative="1" as="geometry" />
        </mxCell>
        <mxCell id="b9aDnPX4whqVVSoq2VFZ-62" value="9200&lt;div&gt;3306&lt;/div&gt;" style="edgeLabel;html=1;align=center;verticalAlign=middle;resizable=0;points=[];" vertex="1" connectable="0" parent="b9aDnPX4whqVVSoq2VFZ-61">
          <mxGeometry x="-0.1207" y="-2" relative="1" as="geometry">
            <mxPoint x="1" y="-9" as="offset" />
          </mxGeometry>
        </mxCell>
        <mxCell id="b9aDnPX4whqVVSoq2VFZ-53" value="app-sg" style="fillColor=none;strokeColor=#DD3522;verticalAlign=top;fontStyle=0;fontColor=#DD3522;whiteSpace=wrap;html=1;" vertex="1" parent="b9aDnPX4whqVVSoq2VFZ-33">
          <mxGeometry x="260" y="171.25" width="95" height="122.5" as="geometry" />
        </mxCell>
        <mxCell id="b9aDnPX4whqVVSoq2VFZ-58" value="" style="edgeStyle=orthogonalEdgeStyle;rounded=0;orthogonalLoop=1;jettySize=auto;html=1;" edge="1" parent="b9aDnPX4whqVVSoq2VFZ-33" source="b9aDnPX4whqVVSoq2VFZ-56" target="b9aDnPX4whqVVSoq2VFZ-53">
          <mxGeometry relative="1" as="geometry">
            <Array as="points">
              <mxPoint x="308" y="340" />
            </Array>
          </mxGeometry>
        </mxCell>
        <mxCell id="b9aDnPX4whqVVSoq2VFZ-59" value="22" style="edgeLabel;html=1;align=center;verticalAlign=middle;resizable=0;points=[];" vertex="1" connectable="0" parent="b9aDnPX4whqVVSoq2VFZ-58">
          <mxGeometry x="-0.0521" y="-1" relative="1" as="geometry">
            <mxPoint as="offset" />
          </mxGeometry>
        </mxCell>
        <mxCell id="b9aDnPX4whqVVSoq2VFZ-66" style="edgeStyle=orthogonalEdgeStyle;rounded=0;orthogonalLoop=1;jettySize=auto;html=1;entryX=1;entryY=0.5;entryDx=0;entryDy=0;" edge="1" parent="b9aDnPX4whqVVSoq2VFZ-33" source="b9aDnPX4whqVVSoq2VFZ-56" target="b9aDnPX4whqVVSoq2VFZ-60">
          <mxGeometry relative="1" as="geometry">
            <Array as="points">
              <mxPoint x="590" y="330" />
              <mxPoint x="590" y="170" />
              <mxPoint x="560" y="170" />
            </Array>
          </mxGeometry>
        </mxCell>
        <mxCell id="b9aDnPX4whqVVSoq2VFZ-67" value="3306" style="edgeLabel;html=1;align=center;verticalAlign=middle;resizable=0;points=[];" vertex="1" connectable="0" parent="b9aDnPX4whqVVSoq2VFZ-66">
          <mxGeometry x="0.01" y="-3" relative="1" as="geometry">
            <mxPoint as="offset" />
          </mxGeometry>
        </mxCell>
        <mxCell id="b9aDnPX4whqVVSoq2VFZ-56" value="app-sg" style="fillColor=none;strokeColor=#DD3522;verticalAlign=top;fontStyle=0;fontColor=#DD3522;whiteSpace=wrap;html=1;" vertex="1" parent="b9aDnPX4whqVVSoq2VFZ-33">
          <mxGeometry x="420" y="280" width="100" height="100" as="geometry" />
        </mxCell>
        <mxCell id="b9aDnPX4whqVVSoq2VFZ-60" value="database-sg" style="fillColor=none;strokeColor=#DD3522;verticalAlign=top;fontStyle=0;fontColor=#DD3522;whiteSpace=wrap;html=1;" vertex="1" parent="b9aDnPX4whqVVSoq2VFZ-33">
          <mxGeometry x="420" y="110" width="140" height="110" as="geometry" />
        </mxCell>
        <mxCell id="b9aDnPX4whqVVSoq2VFZ-71" value="" style="sketch=0;outlineConnect=0;fontColor=#232F3E;gradientColor=none;fillColor=#8C4FFF;strokeColor=none;dashed=0;verticalLabelPosition=bottom;verticalAlign=top;align=center;html=1;fontSize=12;fontStyle=0;aspect=fixed;pointerEvents=1;shape=mxgraph.aws4.application_load_balancer;" vertex="1" parent="b9aDnPX4whqVVSoq2VFZ-33">
          <mxGeometry x="113.5" y="206" width="53" height="53" as="geometry" />
        </mxCell>
        <mxCell id="b9aDnPX4whqVVSoq2VFZ-72" value="" style="sketch=0;points=[[0,0,0],[0.25,0,0],[0.5,0,0],[0.75,0,0],[1,0,0],[0,1,0],[0.25,1,0],[0.5,1,0],[0.75,1,0],[1,1,0],[0,0.25,0],[0,0.5,0],[0,0.75,0],[1,0.25,0],[1,0.5,0],[1,0.75,0]];outlineConnect=0;fontColor=#232F3E;fillColor=#C925D1;strokeColor=#ffffff;dashed=0;verticalLabelPosition=bottom;verticalAlign=top;align=center;html=1;fontSize=12;fontStyle=0;aspect=fixed;shape=mxgraph.aws4.resourceIcon;resIcon=mxgraph.aws4.rds_on_vmware;" vertex="1" parent="b9aDnPX4whqVVSoq2VFZ-33">
          <mxGeometry x="430" y="146" width="48" height="48" as="geometry" />
        </mxCell>
        <mxCell id="b9aDnPX4whqVVSoq2VFZ-73" value="" style="sketch=0;outlineConnect=0;fontColor=#232F3E;gradientColor=none;strokeColor=#ffffff;fillColor=#232F3E;dashed=0;verticalLabelPosition=middle;verticalAlign=bottom;align=center;html=1;whiteSpace=wrap;fontSize=10;fontStyle=1;spacing=3;shape=mxgraph.aws4.productIcon;prIcon=mxgraph.aws4.elasticsearch_service;" vertex="1" parent="b9aDnPX4whqVVSoq2VFZ-33">
          <mxGeometry x="500" y="146" width="50" height="70" as="geometry" />
        </mxCell>
        <mxCell id="b9aDnPX4whqVVSoq2VFZ-74" value="" style="sketch=0;points=[[0,0,0],[0.25,0,0],[0.5,0,0],[0.75,0,0],[1,0,0],[0,1,0],[0.25,1,0],[0.5,1,0],[0.75,1,0],[1,1,0],[0,0.25,0],[0,0.5,0],[0,0.75,0],[1,0.25,0],[1,0.5,0],[1,0.75,0]];outlineConnect=0;fontColor=#232F3E;fillColor=#ED7100;strokeColor=#ffffff;dashed=0;verticalLabelPosition=bottom;verticalAlign=top;align=center;html=1;fontSize=12;fontStyle=0;aspect=fixed;shape=mxgraph.aws4.resourceIcon;resIcon=mxgraph.aws4.ec2;" vertex="1" parent="b9aDnPX4whqVVSoq2VFZ-33">
          <mxGeometry x="446" y="312.5" width="48" height="48" as="geometry" />
        </mxCell>
        <mxCell id="b9aDnPX4whqVVSoq2VFZ-75" value="" style="sketch=0;points=[[0,0,0],[0.25,0,0],[0.5,0,0],[0.75,0,0],[1,0,0],[0,1,0],[0.25,1,0],[0.5,1,0],[0.75,1,0],[1,1,0],[0,0.25,0],[0,0.5,0],[0,0.75,0],[1,0.25,0],[1,0.5,0],[1,0.75,0]];outlineConnect=0;fontColor=#232F3E;fillColor=#ED7100;strokeColor=#ffffff;dashed=0;verticalLabelPosition=bottom;verticalAlign=top;align=center;html=1;fontSize=12;fontStyle=0;aspect=fixed;shape=mxgraph.aws4.resourceIcon;resIcon=mxgraph.aws4.ecs;" vertex="1" parent="b9aDnPX4whqVVSoq2VFZ-33">
          <mxGeometry x="282.5" y="207.5" width="50" height="50" as="geometry" />
        </mxCell>
        <mxCell id="b9aDnPX4whqVVSoq2VFZ-49" value="" style="edgeStyle=orthogonalEdgeStyle;rounded=0;orthogonalLoop=1;jettySize=auto;html=1;" edge="1" parent="1" source="b9aDnPX4whqVVSoq2VFZ-48" target="b9aDnPX4whqVVSoq2VFZ-45">
          <mxGeometry relative="1" as="geometry" />
        </mxCell>
        <mxCell id="b9aDnPX4whqVVSoq2VFZ-52" value="443" style="edgeLabel;html=1;align=center;verticalAlign=middle;resizable=0;points=[];" vertex="1" connectable="0" parent="b9aDnPX4whqVVSoq2VFZ-49">
          <mxGeometry x="-0.4953" y="1" relative="1" as="geometry">
            <mxPoint x="9" y="-9" as="offset" />
          </mxGeometry>
        </mxCell>
        <mxCell id="b9aDnPX4whqVVSoq2VFZ-48" value="" style="outlineConnect=0;dashed=0;verticalLabelPosition=bottom;verticalAlign=top;align=center;html=1;shape=mxgraph.aws3.internet;fillColor=#D2D3D3;gradientColor=none;" vertex="1" parent="1">
          <mxGeometry x="29" y="830" width="79.5" height="79.5" as="geometry" />
        </mxCell>
        <mxCell id="b9aDnPX4whqVVSoq2VFZ-69" value="" style="edgeStyle=orthogonalEdgeStyle;rounded=0;orthogonalLoop=1;jettySize=auto;html=1;" edge="1" parent="1" source="b9aDnPX4whqVVSoq2VFZ-68" target="b9aDnPX4whqVVSoq2VFZ-56">
          <mxGeometry relative="1" as="geometry" />
        </mxCell>
        <mxCell id="b9aDnPX4whqVVSoq2VFZ-70" value="22" style="edgeLabel;html=1;align=center;verticalAlign=middle;resizable=0;points=[];" vertex="1" connectable="0" parent="b9aDnPX4whqVVSoq2VFZ-69">
          <mxGeometry x="-0.0448" y="1" relative="1" as="geometry">
            <mxPoint as="offset" />
          </mxGeometry>
        </mxCell>
        <mxCell id="b9aDnPX4whqVVSoq2VFZ-68" value="" style="sketch=0;outlineConnect=0;fontColor=#232F3E;gradientColor=none;fillColor=#232F3D;strokeColor=none;dashed=0;verticalLabelPosition=bottom;verticalAlign=top;align=center;html=1;fontSize=12;fontStyle=0;aspect=fixed;pointerEvents=1;shape=mxgraph.aws4.corporate_data_center;" vertex="1" parent="1">
          <mxGeometry x="580" y="1090" width="40.09" height="59" as="geometry" />
        </mxCell>
      </root>
    </mxGraphModel>
  </diagram>
</mxfile>
